<svg width="38" height="38" viewBox="0 0 38 38" fill="none" xmlns="http://www.w3.org/2000/svg">
<g filter="url(#filter0_d_17_135)">
<g clip-path="url(#clip0_17_135)">
<path d="M17.25 5.00001H8.5C7.83696 5.00001 7.20107 5.2634 6.73223 5.73224C6.26339 6.20108 6 6.83697 6 7.50001V25C6 25.6631 6.26339 26.2989 6.73223 26.7678C7.20107 27.2366 7.83696 27.5 8.5 27.5H26C26.663 27.5 27.2989 27.2366 27.7678 26.7678C28.2366 26.2989 28.5 25.6631 28.5 25V16.25M26.625 3.12501C27.1223 2.62773 27.7967 2.34836 28.5 2.34836C29.2033 2.34836 29.8777 2.62773 30.375 3.12501C30.8723 3.62229 31.1517 4.29675 31.1517 5.00001C31.1517 5.70327 30.8723 6.37773 30.375 6.87501L18.5 18.75L13.5 20L14.75 15L26.625 3.12501Z" stroke="white" stroke-width="4" stroke-linecap="round" stroke-linejoin="round"/>
</g>
</g>
<defs>
<filter id="filter0_d_17_135" x="-0.5" y="0" width="38" height="38" filterUnits="userSpaceOnUse" color-interpolation-filters="sRGB">
<feFlood flood-opacity="0" result="BackgroundImageFix"/>
<feColorMatrix in="SourceAlpha" type="matrix" values="0 0 0 0 0 0 0 0 0 0 0 0 0 0 0 0 0 0 127 0" result="hardAlpha"/>
<feOffset dy="4"/>
<feGaussianBlur stdDeviation="2"/>
<feComposite in2="hardAlpha" operator="out"/>
<feColorMatrix type="matrix" values="0 0 0 0 0 0 0 0 0 0 0 0 0 0 0 0 0 0 0.25 0"/>
<feBlend mode="normal" in2="BackgroundImageFix" result="effect1_dropShadow_17_135"/>
<feBlend mode="normal" in="SourceGraphic" in2="effect1_dropShadow_17_135" result="shape"/>
</filter>
<clipPath id="clip0_17_135">
<rect width="30" height="30" fill="white" transform="translate(3.5)"/>
</clipPath>
</defs>
</svg>
