<svg width="42" height="44" viewBox="0 0 42 44" fill="none" xmlns="http://www.w3.org/2000/svg">
<g filter="url(#filter0_d_17_139)">
<path d="M21 33.3333H36M28.5 5.83332C29.163 5.17028 30.0623 4.79779 31 4.79779C31.4643 4.79779 31.924 4.88924 32.353 5.06692C32.7819 5.24459 33.1717 5.50502 33.5 5.83332C33.8283 6.16163 34.0887 6.55138 34.2664 6.98033C34.4441 7.40928 34.5355 7.86903 34.5355 8.33332C34.5355 8.79762 34.4441 9.25736 34.2664 9.68631C34.0887 10.1153 33.8283 10.505 33.5 10.8333L12.6667 31.6667L6 33.3333L7.66667 26.6667L28.5 5.83332Z" stroke="#E6FF00" stroke-width="4" stroke-linecap="round" stroke-linejoin="round"/>
</g>
<defs>
<filter id="filter0_d_17_139" x="-3" y="0" width="48" height="48" filterUnits="userSpaceOnUse" color-interpolation-filters="sRGB">
<feFlood flood-opacity="0" result="BackgroundImageFix"/>
<feColorMatrix in="SourceAlpha" type="matrix" values="0 0 0 0 0 0 0 0 0 0 0 0 0 0 0 0 0 0 127 0" result="hardAlpha"/>
<feOffset dy="4"/>
<feGaussianBlur stdDeviation="2"/>
<feComposite in2="hardAlpha" operator="out"/>
<feColorMatrix type="matrix" values="0 0 0 0 0 0 0 0 0 0 0 0 0 0 0 0 0 0 0.25 0"/>
<feBlend mode="normal" in2="BackgroundImageFix" result="effect1_dropShadow_17_139"/>
<feBlend mode="normal" in="SourceGraphic" in2="effect1_dropShadow_17_139" result="shape"/>
</filter>
</defs>
</svg>
