<svg width="34" height="36" viewBox="0 0 34 36" fill="none" xmlns="http://www.w3.org/2000/svg">
<g filter="url(#filter0_d_17_131)">
<path d="M8.25 26.25H25.75C27.1307 26.25 28.25 25.1307 28.25 23.75V6.25C28.25 4.86929 27.1307 3.75 25.75 3.75H8.25C6.86929 3.75 5.75 4.86929 5.75 6.25V23.75C5.75 25.1307 6.86929 26.25 8.25 26.25ZM8.25 26.25L22 12.5L28.25 18.75M14.5 10.625C14.5 11.6605 13.6605 12.5 12.625 12.5C11.5895 12.5 10.75 11.6605 10.75 10.625C10.75 9.58947 11.5895 8.75 12.625 8.75C13.6605 8.75 14.5 9.58947 14.5 10.625Z" stroke="white" stroke-width="3.5" stroke-linecap="round" stroke-linejoin="round"/>
</g>
<defs>
<filter id="filter0_d_17_131" x="-2" y="0" width="38" height="38" filterUnits="userSpaceOnUse" color-interpolation-filters="sRGB">
<feFlood flood-opacity="0" result="BackgroundImageFix"/>
<feColorMatrix in="SourceAlpha" type="matrix" values="0 0 0 0 0 0 0 0 0 0 0 0 0 0 0 0 0 0 127 0" result="hardAlpha"/>
<feOffset dy="4"/>
<feGaussianBlur stdDeviation="2"/>
<feComposite in2="hardAlpha" operator="out"/>
<feColorMatrix type="matrix" values="0 0 0 0 0 0 0 0 0 0 0 0 0 0 0 0 0 0 0.25 0"/>
<feBlend mode="normal" in2="BackgroundImageFix" result="effect1_dropShadow_17_131"/>
<feBlend mode="normal" in="SourceGraphic" in2="effect1_dropShadow_17_131" result="shape"/>
</filter>
</defs>
</svg>
