<svg width="45" height="49" viewBox="0 0 45 49" fill="none" xmlns="http://www.w3.org/2000/svg">
<g filter="url(#filter0_d_17_140)">
<path d="M22.5 5.5H35.3333C36.3058 5.5 37.2384 5.88631 37.9261 6.57394C38.6137 7.26158 39 8.19421 39 9.16667V34.8333C39 35.8058 38.6137 36.7384 37.9261 37.4261C37.2384 38.1137 36.3058 38.5 35.3333 38.5H22.5M22.5 5.5H9.66667C8.69421 5.5 7.76158 5.88631 7.07394 6.57394C6.38631 7.26158 6 8.19421 6 9.16667V34.8333C6 35.8058 6.38631 36.7384 7.07394 37.4261C7.76158 38.1137 8.69421 38.5 9.66667 38.5H22.5M22.5 5.5V38.5" stroke="white" stroke-width="4" stroke-linecap="round" stroke-linejoin="round"/>
</g>
<defs>
<filter id="filter0_d_17_140" x="-3.5" y="0" width="52" height="52" filterUnits="userSpaceOnUse" color-interpolation-filters="sRGB">
<feFlood flood-opacity="0" result="BackgroundImageFix"/>
<feColorMatrix in="SourceAlpha" type="matrix" values="0 0 0 0 0 0 0 0 0 0 0 0 0 0 0 0 0 0 127 0" result="hardAlpha"/>
<feOffset dy="4"/>
<feGaussianBlur stdDeviation="2"/>
<feComposite in2="hardAlpha" operator="out"/>
<feColorMatrix type="matrix" values="0 0 0 0 0 0 0 0 0 0 0 0 0 0 0 0 0 0 0.25 0"/>
<feBlend mode="normal" in2="BackgroundImageFix" result="effect1_dropShadow_17_140"/>
<feBlend mode="normal" in="SourceGraphic" in2="effect1_dropShadow_17_140" result="shape"/>
</filter>
</defs>
</svg>
